<svg width="40" height="40" viewBox="0 0 40 40" fill="none" xmlns="http://www.w3.org/2000/svg">
<path d="M0 11.4286C0 8.39753 1.20408 5.49062 3.34735 3.34735C5.49062 1.20408 8.39753 0 11.4286 0L28.5714 0C31.6025 0 34.5094 1.20408 36.6527 3.34735C38.7959 5.49062 40 8.39753 40 11.4286V28.5714C40 31.6025 38.7959 34.5094 36.6527 36.6527C34.5094 38.7959 31.6025 40 28.5714 40H11.4286C8.39753 40 5.49062 38.7959 3.34735 36.6527C1.20408 34.5094 0 31.6025 0 28.5714V11.4286ZM30.5943 16.3086C30.8599 16.0429 31.0707 15.7276 31.2144 15.3805C31.3582 15.0334 31.4322 14.6614 31.4322 14.2857C31.4322 13.91 31.3582 13.538 31.2144 13.191C31.0707 12.8439 30.8599 12.5285 30.5943 12.2629C30.3286 11.9972 30.0133 11.7865 29.6662 11.6427C29.3191 11.499 28.9471 11.425 28.5714 11.425C28.1957 11.425 27.8237 11.499 27.4767 11.6427C27.1296 11.7865 26.8142 11.9972 26.5486 12.2629L17.1429 21.6743L13.4514 17.9771C13.1858 17.7115 12.8704 17.5008 12.5233 17.357C12.1763 17.2132 11.8043 17.1392 11.4286 17.1392C11.0529 17.1392 10.6809 17.2132 10.3338 17.357C9.98673 17.5008 9.67136 17.7115 9.40571 17.9771C9.14007 18.2428 8.92935 18.5582 8.78558 18.9052C8.64182 19.2523 8.56782 19.6243 8.56782 20C8.56782 20.3757 8.64182 20.7477 8.78558 21.0948C8.92935 21.4418 9.14007 21.7572 9.40571 22.0229L15.12 27.7371C15.3854 28.0032 15.7007 28.2143 16.0478 28.3584C16.3949 28.5024 16.767 28.5765 17.1429 28.5765C17.5187 28.5765 17.8908 28.5024 18.2379 28.3584C18.585 28.2143 18.9003 28.0032 19.1657 27.7371L30.5943 16.3086Z" fill="black"/>
</svg>
