<svg
  xmlns="http://www.w3.org/2000/svg"
  xmlns:xlink="http://www.w3.org/1999/xlink"
  zoomAndPan="magnify"
  viewBox="0 0 24 24"
  width="1em"
  height="1em"
  stroke-width="0"
  preserveAspectRatio="xMidYMid meet"
  version="1.0"
>
  <defs><g /></defs>
  <g fill="#abb2bf" fill-opacity="1">
    <g transform="translate(3.8, 18)">
      <g>
        <path
          d="M 8.109375 -12.140625 C 8.109375 -13.085938 8.570312 -13.5625 9.5 -13.5625 C 10.4375 -13.5625 10.90625 -13.085938 10.90625 -12.140625 L 10.90625 -1.390625 C 10.90625 -0.460938 10.4375 0 9.5 0 C 8.570312 0 8.109375 -0.460938 8.109375 -1.390625 L 8.109375 -5.46875 L 3.0625 -5.46875 L 3.0625 -1.390625 C 3.0625 -0.460938 2.597656 0 1.671875 0 C 0.753906 0 0.296875 -0.460938 0.296875 -1.390625 L 0.296875 -12.140625 C 0.296875 -13.085938 0.753906 -13.5625 1.671875 -13.5625 C 2.597656 -13.5625 3.0625 -13.085938 3.0625 -12.140625 L 3.0625 -8.28125 L 8.109375 -8.28125 Z M 8.109375 -12.140625 "
        />
      </g>
    </g>
  </g>
  <g fill="#abb2bf" fill-opacity="1">
    <g transform="translate(17, 18)">
      <g>
        <path
          d="M 3.25 -7.828125 C 3.5 -7.828125 3.703125 -7.753906 3.859375 -7.609375 C 4.023438 -7.460938 4.109375 -7.257812 4.109375 -7 C 4.109375 -6.769531 4.023438 -6.578125 3.859375 -6.421875 C 3.816406 -6.390625 3.695312 -6.285156 3.5 -6.109375 C 3.300781 -5.941406 3.160156 -5.8125 3.078125 -5.71875 C 2.992188 -5.625 2.882812 -5.492188 2.75 -5.328125 C 2.625 -5.171875 2.523438 -5.007812 2.453125 -4.84375 C 2.648438 -4.945312 2.929688 -5 3.296875 -5 C 3.921875 -5 4.410156 -4.769531 4.765625 -4.3125 C 5.117188 -3.863281 5.296875 -3.328125 5.296875 -2.703125 C 5.296875 -1.929688 5.050781 -1.265625 4.5625 -0.703125 C 4.082031 -0.148438 3.457031 0.125 2.6875 0.125 C 1.882812 0.125 1.253906 -0.160156 0.796875 -0.734375 C 0.347656 -1.316406 0.125 -2.019531 0.125 -2.84375 C 0.125 -4.457031 0.953125 -6.035156 2.609375 -7.578125 C 2.796875 -7.742188 3.007812 -7.828125 3.25 -7.828125 Z M 2.671875 -3.75 C 2.378906 -3.75 2.15625 -3.644531 2 -3.4375 C 1.851562 -3.226562 1.78125 -2.976562 1.78125 -2.6875 C 1.78125 -2.375 1.859375 -2.101562 2.015625 -1.875 C 2.179688 -1.644531 2.40625 -1.519531 2.6875 -1.5 C 2.988281 -1.519531 3.222656 -1.644531 3.390625 -1.875 C 3.566406 -2.113281 3.65625 -2.382812 3.65625 -2.6875 C 3.65625 -2.976562 3.570312 -3.226562 3.40625 -3.4375 C 3.238281 -3.644531 2.992188 -3.75 2.671875 -3.75 Z M 2.671875 -3.75 "
        />
      </g>
    </g>
  </g>
</svg>
