<svg
  xmlns="http://www.w3.org/2000/svg"
  xmlns:xlink="http://www.w3.org/1999/xlink"
  zoomAndPan="magnify"
  viewBox="0 0 24 24"
  width="1em"
  height="1em"
  stroke-width="0"
  preserveAspectRatio="xMidYMid meet"
  version="1.0"
>
  <defs><g /></defs>
  <g fill="#abb2bf" fill-opacity="1">
    <g transform="translate(3.8, 18)">
      <g>
        <path
          d="M 8.109375 -12.140625 C 8.109375 -13.085938 8.570312 -13.5625 9.5 -13.5625 C 10.4375 -13.5625 10.90625 -13.085938 10.90625 -12.140625 L 10.90625 -1.390625 C 10.90625 -0.460938 10.4375 0 9.5 0 C 8.570312 0 8.109375 -0.460938 8.109375 -1.390625 L 8.109375 -5.46875 L 3.0625 -5.46875 L 3.0625 -1.390625 C 3.0625 -0.460938 2.597656 0 1.671875 0 C 0.753906 0 0.296875 -0.460938 0.296875 -1.390625 L 0.296875 -12.140625 C 0.296875 -13.085938 0.753906 -13.5625 1.671875 -13.5625 C 2.597656 -13.5625 3.0625 -13.085938 3.0625 -12.140625 L 3.0625 -8.28125 L 8.109375 -8.28125 Z M 8.109375 -12.140625 "
        />
      </g>
    </g>
  </g>
  <g fill="#abb2bf" fill-opacity="1">
    <g transform="translate(17, 18)">
      <g>
        <path
          d="M 0.890625 -7.40625 L 2.421875 -7.828125 C 2.773438 -7.828125 3.019531 -7.664062 3.15625 -7.34375 C 3.207031 -7.269531 3.234375 -7.054688 3.234375 -6.703125 L 3.234375 -0.875 C 3.234375 -0.601562 3.15625 -0.390625 3 -0.234375 C 2.851562 -0.078125 2.65625 0 2.40625 0 C 2.15625 0 1.945312 -0.078125 1.78125 -0.234375 C 1.625 -0.398438 1.546875 -0.613281 1.546875 -0.875 L 1.546875 -5.9375 C 1.359375 -5.84375 1.175781 -5.796875 1 -5.796875 C 0.78125 -5.796875 0.59375 -5.867188 0.4375 -6.015625 C 0.28125 -6.160156 0.203125 -6.347656 0.203125 -6.578125 C 0.203125 -6.765625 0.257812 -6.929688 0.375 -7.078125 C 0.5 -7.234375 0.671875 -7.34375 0.890625 -7.40625 Z M 0.890625 -7.40625 "
        />
      </g>
    </g>
  </g>
</svg>
