<svg
  xmlns="http://www.w3.org/2000/svg"
  xmlns:xlink="http://www.w3.org/1999/xlink"
  zoomAndPan="magnify"
  viewBox="0 0 24 24"
  width="1em"
  height="1em"
  stroke-width="0"
  preserveAspectRatio="xMidYMid meet"
  version="1.0"
>
  <defs><g /></defs>
  <g fill="#abb2bf" fill-opacity="1">
    <g transform="translate(3.8, 18)">
      <g>
        <path
          d="M 8.109375 -12.140625 C 8.109375 -13.085938 8.570312 -13.5625 9.5 -13.5625 C 10.4375 -13.5625 10.90625 -13.085938 10.90625 -12.140625 L 10.90625 -1.390625 C 10.90625 -0.460938 10.4375 0 9.5 0 C 8.570312 0 8.109375 -0.460938 8.109375 -1.390625 L 8.109375 -5.46875 L 3.0625 -5.46875 L 3.0625 -1.390625 C 3.0625 -0.460938 2.597656 0 1.671875 0 C 0.753906 0 0.296875 -0.460938 0.296875 -1.390625 L 0.296875 -12.140625 C 0.296875 -13.085938 0.753906 -13.5625 1.671875 -13.5625 C 2.597656 -13.5625 3.0625 -13.085938 3.0625 -12.140625 L 3.0625 -8.28125 L 8.109375 -8.28125 Z M 8.109375 -12.140625 "
        />
      </g>
    </g>
  </g>
  <g fill="#abb2bf" fill-opacity="1">
    <g transform="translate(17, 18)">
      <g>
        <path
          d="M 2.109375 -7.8125 L 4.296875 -7.8125 C 4.546875 -7.8125 4.742188 -7.726562 4.890625 -7.5625 C 5.046875 -7.394531 5.125 -7.1875 5.125 -6.9375 C 5.125 -6.394531 4.847656 -6.125 4.296875 -6.125 L 2.5625 -6.125 C 2.550781 -6.039062 2.53125 -5.914062 2.5 -5.75 C 2.476562 -5.59375 2.457031 -5.445312 2.4375 -5.3125 C 3.3125 -5.3125 3.976562 -5.054688 4.4375 -4.546875 C 4.90625 -4.035156 5.140625 -3.414062 5.140625 -2.6875 C 5.140625 -1.945312 4.894531 -1.289062 4.40625 -0.71875 C 3.925781 -0.15625 3.253906 0.125 2.390625 0.125 C 1.753906 0.125 1.195312 -0.0507812 0.71875 -0.40625 C 0.238281 -0.769531 0 -1.144531 0 -1.53125 C 0 -1.769531 0.0703125 -1.960938 0.21875 -2.109375 C 0.375 -2.253906 0.554688 -2.328125 0.765625 -2.328125 C 1.035156 -2.328125 1.253906 -2.207031 1.421875 -1.96875 C 1.523438 -1.832031 1.671875 -1.722656 1.859375 -1.640625 C 2.054688 -1.554688 2.25 -1.515625 2.4375 -1.515625 C 2.738281 -1.515625 2.984375 -1.625 3.171875 -1.84375 C 3.367188 -2.0625 3.46875 -2.316406 3.46875 -2.609375 C 3.46875 -2.898438 3.375 -3.15625 3.1875 -3.375 C 3.007812 -3.601562 2.75 -3.71875 2.40625 -3.71875 C 2.289062 -3.71875 2.132812 -3.691406 1.9375 -3.640625 C 1.738281 -3.585938 1.585938 -3.5625 1.484375 -3.5625 C 0.921875 -3.5625 0.640625 -3.832031 0.640625 -4.375 C 0.640625 -4.4375 0.804688 -5.328125 1.140625 -7.046875 C 1.242188 -7.554688 1.566406 -7.8125 2.109375 -7.8125 Z M 2.109375 -7.8125 "
        />
      </g>
    </g>
  </g>
</svg>
