<svg
  xmlns="http://www.w3.org/2000/svg"
  xmlns:xlink="http://www.w3.org/1999/xlink"
  zoomAndPan="magnify"
  viewBox="0 0 24 24"
  width="1em"
  height="1em"
  stroke-width="0"
  preserveAspectRatio="xMidYMid meet"
  version="1.0"
>
  <defs><g /></defs>
  <g fill="#abb2bf" fill-opacity="1">
    <g transform="translate(3.8, 18)">
      <g>
        <path
          d="M 8.109375 -12.140625 C 8.109375 -13.085938 8.570312 -13.5625 9.5 -13.5625 C 10.4375 -13.5625 10.90625 -13.085938 10.90625 -12.140625 L 10.90625 -1.390625 C 10.90625 -0.460938 10.4375 0 9.5 0 C 8.570312 0 8.109375 -0.460938 8.109375 -1.390625 L 8.109375 -5.46875 L 3.0625 -5.46875 L 3.0625 -1.390625 C 3.0625 -0.460938 2.597656 0 1.671875 0 C 0.753906 0 0.296875 -0.460938 0.296875 -1.390625 L 0.296875 -12.140625 C 0.296875 -13.085938 0.753906 -13.5625 1.671875 -13.5625 C 2.597656 -13.5625 3.0625 -13.085938 3.0625 -12.140625 L 3.0625 -8.28125 L 8.109375 -8.28125 Z M 8.109375 -12.140625 "
        />
      </g>
    </g>
  </g>
  <g fill="#abb2bf" fill-opacity="1">
    <g transform="translate(17, 18)">
      <g>
        <path
          d="M 2.671875 -8.03125 C 3.296875 -8.03125 3.851562 -7.820312 4.34375 -7.40625 C 4.832031 -7 5.078125 -6.472656 5.078125 -5.828125 C 5.078125 -5.109375 4.820312 -4.421875 4.3125 -3.765625 C 3.457031 -2.628906 2.914062 -1.914062 2.6875 -1.625 L 4.375 -1.625 C 4.90625 -1.625 5.171875 -1.359375 5.171875 -0.828125 C 5.171875 -0.273438 4.90625 0 4.375 0 L 1.265625 0 C 0.617188 0 0.296875 -0.269531 0.296875 -0.8125 C 0.296875 -1 0.375 -1.203125 0.53125 -1.421875 L 3.0625 -4.859375 C 3.269531 -5.128906 3.375 -5.425781 3.375 -5.75 C 3.375 -5.9375 3.300781 -6.085938 3.15625 -6.203125 C 3.007812 -6.316406 2.835938 -6.375 2.640625 -6.375 C 2.429688 -6.375 2.253906 -6.304688 2.109375 -6.171875 C 1.972656 -6.035156 1.90625 -5.847656 1.90625 -5.609375 C 1.90625 -5.398438 1.828125 -5.191406 1.671875 -4.984375 C 1.523438 -4.785156 1.328125 -4.6875 1.078125 -4.6875 C 0.816406 -4.6875 0.609375 -4.789062 0.453125 -5 C 0.296875 -5.207031 0.21875 -5.425781 0.21875 -5.65625 C 0.21875 -6.363281 0.460938 -6.9375 0.953125 -7.375 C 1.441406 -7.8125 2.015625 -8.03125 2.671875 -8.03125 Z M 2.671875 -8.03125 "
        />
      </g>
    </g>
  </g>
</svg>
