<svg
  xmlns="http://www.w3.org/2000/svg"
  xmlns:xlink="http://www.w3.org/1999/xlink"
  zoomAndPan="magnify"
  viewBox="0 0 24 24"
  width="1em"
  height="1em"
  stroke-width="0"
  preserveAspectRatio="xMidYMid meet"
  version="1.0"
>
  <defs><g /></defs>
  <g fill="#abb2bf" fill-opacity="1">
    <g transform="translate(3.8, 18)">
      <g>
        <path
          d="M 8.109375 -12.140625 C 8.109375 -13.085938 8.570312 -13.5625 9.5 -13.5625 C 10.4375 -13.5625 10.90625 -13.085938 10.90625 -12.140625 L 10.90625 -1.390625 C 10.90625 -0.460938 10.4375 0 9.5 0 C 8.570312 0 8.109375 -0.460938 8.109375 -1.390625 L 8.109375 -5.46875 L 3.0625 -5.46875 L 3.0625 -1.390625 C 3.0625 -0.460938 2.597656 0 1.671875 0 C 0.753906 0 0.296875 -0.460938 0.296875 -1.390625 L 0.296875 -12.140625 C 0.296875 -13.085938 0.753906 -13.5625 1.671875 -13.5625 C 2.597656 -13.5625 3.0625 -13.085938 3.0625 -12.140625 L 3.0625 -8.28125 L 8.109375 -8.28125 Z M 8.109375 -12.140625 "
        />
      </g>
    </g>
  </g>
  <g fill="#abb2bf" fill-opacity="1">
    <g transform="translate(17, 18)">
      <g>
        <path
          d="M 4.96875 -6.6875 L 4.96875 -3.375 C 5.488281 -3.375 5.75 -3.097656 5.75 -2.546875 C 5.75 -2.023438 5.488281 -1.765625 4.96875 -1.765625 L 4.96875 -0.890625 C 4.96875 -0.296875 4.691406 0 4.140625 0 C 3.878906 0 3.675781 -0.0703125 3.53125 -0.21875 C 3.382812 -0.375 3.3125 -0.597656 3.3125 -0.890625 L 3.3125 -1.75 L 1.109375 -1.75 C 0.816406 -1.75 0.585938 -1.835938 0.421875 -2.015625 C 0.253906 -2.191406 0.171875 -2.40625 0.171875 -2.65625 C 0.171875 -2.875 0.242188 -3.082031 0.390625 -3.28125 L 0.359375 -3.25 L 2.78125 -7.171875 C 3.0625 -7.609375 3.429688 -7.828125 3.890625 -7.828125 C 4.203125 -7.828125 4.457031 -7.722656 4.65625 -7.515625 C 4.863281 -7.304688 4.96875 -7.03125 4.96875 -6.6875 Z M 3.3125 -5.0625 L 2.34375 -3.375 L 3.3125 -3.375 Z M 3.3125 -5.0625 "
        />
      </g>
    </g>
  </g>
</svg>
