<svg
  xmlns="http://www.w3.org/2000/svg"
  xmlns:xlink="http://www.w3.org/1999/xlink"
  zoomAndPan="magnify"
  viewBox="0 0 24 24"
  width="1em"
  height="1em"
  stroke-width="0"
  preserveAspectRatio="xMidYMid meet"
  version="1.0"
>
  <defs><g /></defs>
  <g fill="#abb2bf" fill-opacity="1">
    <g transform="translate(3.8, 18)">
      <g>
        <path
          d="M 8.109375 -12.140625 C 8.109375 -13.085938 8.570312 -13.5625 9.5 -13.5625 C 10.4375 -13.5625 10.90625 -13.085938 10.90625 -12.140625 L 10.90625 -1.390625 C 10.90625 -0.460938 10.4375 0 9.5 0 C 8.570312 0 8.109375 -0.460938 8.109375 -1.390625 L 8.109375 -5.46875 L 3.0625 -5.46875 L 3.0625 -1.390625 C 3.0625 -0.460938 2.597656 0 1.671875 0 C 0.753906 0 0.296875 -0.460938 0.296875 -1.390625 L 0.296875 -12.140625 C 0.296875 -13.085938 0.753906 -13.5625 1.671875 -13.5625 C 2.597656 -13.5625 3.0625 -13.085938 3.0625 -12.140625 L 3.0625 -8.28125 L 8.109375 -8.28125 Z M 8.109375 -12.140625 "
        />
      </g>
    </g>
  </g>
  <g fill="#abb2bf" fill-opacity="1">
    <g transform="translate(17, 18)">
      <g>
        <path
          d="M 2.5625 -8.0625 C 3.226562 -8.0625 3.773438 -7.84375 4.203125 -7.40625 C 4.628906 -6.96875 4.84375 -6.460938 4.84375 -5.890625 C 4.84375 -5.179688 4.535156 -4.632812 3.921875 -4.25 C 4.316406 -4.03125 4.617188 -3.75 4.828125 -3.40625 C 5.035156 -3.0625 5.140625 -2.695312 5.140625 -2.3125 C 5.140625 -1.675781 4.898438 -1.109375 4.421875 -0.609375 C 3.953125 -0.117188 3.34375 0.125 2.59375 0.125 C 2.164062 0.125 1.769531 0.0234375 1.40625 -0.171875 C 1.039062 -0.367188 0.753906 -0.617188 0.546875 -0.921875 C 0.347656 -1.210938 0.25 -1.519531 0.25 -1.84375 C 0.25 -2.101562 0.320312 -2.304688 0.46875 -2.453125 C 0.613281 -2.609375 0.796875 -2.6875 1.015625 -2.6875 C 1.160156 -2.6875 1.304688 -2.640625 1.453125 -2.546875 C 1.609375 -2.453125 1.722656 -2.320312 1.796875 -2.15625 C 1.960938 -1.75 2.222656 -1.546875 2.578125 -1.546875 C 2.816406 -1.546875 3.023438 -1.625 3.203125 -1.78125 C 3.378906 -1.9375 3.46875 -2.144531 3.46875 -2.40625 C 3.46875 -2.644531 3.40625 -2.863281 3.28125 -3.0625 C 3.15625 -3.269531 2.984375 -3.390625 2.765625 -3.421875 L 2.421875 -3.421875 C 2.117188 -3.421875 1.894531 -3.476562 1.75 -3.59375 C 1.601562 -3.707031 1.53125 -3.890625 1.53125 -4.140625 C 1.53125 -4.390625 1.601562 -4.566406 1.75 -4.671875 C 1.894531 -4.773438 2.117188 -4.828125 2.421875 -4.828125 C 2.578125 -4.828125 2.675781 -4.832031 2.71875 -4.84375 C 2.851562 -4.882812 2.960938 -5 3.046875 -5.1875 C 3.140625 -5.375 3.1875 -5.5625 3.1875 -5.75 C 3.1875 -5.957031 3.128906 -6.117188 3.015625 -6.234375 C 2.898438 -6.359375 2.738281 -6.421875 2.53125 -6.421875 C 2.132812 -6.421875 1.90625 -6.253906 1.84375 -5.921875 C 1.84375 -5.921875 1.84375 -5.914062 1.84375 -5.90625 C 1.84375 -5.800781 1.789062 -5.679688 1.6875 -5.546875 C 1.582031 -5.410156 1.425781 -5.34375 1.21875 -5.34375 C 0.632812 -5.34375 0.34375 -5.597656 0.34375 -6.109375 C 0.34375 -6.617188 0.554688 -7.070312 0.984375 -7.46875 C 1.410156 -7.863281 1.9375 -8.0625 2.5625 -8.0625 Z M 2.5625 -8.0625 "
        />
      </g>
    </g>
  </g>
</svg>
